<svg width="24" height="24" viewBox="0 0 24 24" fill="none" xmlns="http://www.w3.org/2000/svg">
<path fill-rule="evenodd" clip-rule="evenodd" d="M1.75 1.5C1.61193 1.5 1.5 1.61193 1.5 1.75V5.44388C1.5 5.85809 1.16421 6.19388 0.75 6.19388C0.335786 6.19388 0 5.85809 0 5.44388V1.75C0 0.783502 0.783502 0 1.75 0H5.44388C5.85809 0 6.19388 0.335786 6.19388 0.75C6.19388 1.16421 5.85809 1.5 5.44388 1.5H1.75ZM6.0051 8.63776V6.0051H8.63776V8.63776H6.0051ZM4.5051 5.5051C4.5051 4.95282 4.95282 4.5051 5.5051 4.5051H9.13776C9.69004 4.5051 10.1378 4.95282 10.1378 5.5051V9.13776C10.1378 9.69004 9.69004 10.1378 9.13776 10.1378H5.5051C4.95282 10.1378 4.5051 9.69004 4.5051 9.13776V5.5051ZM14.4541 8.63776V6.0051H17.0867V8.63776H14.4541ZM12.9541 5.5051C12.9541 4.95282 13.4018 4.5051 13.9541 4.5051H17.5867C18.139 4.5051 18.5867 4.95282 18.5867 5.5051V9.13776C18.5867 9.69004 18.139 10.1378 17.5867 10.1378H13.9541C13.4018 10.1378 12.9541 9.69004 12.9541 9.13776V5.5051ZM14.4541 14.4541V17.0867H17.0867V14.4541H14.4541ZM13.9541 12.9541C13.4018 12.9541 12.9541 13.4018 12.9541 13.9541V17.5867C12.9541 18.139 13.4018 18.5867 13.9541 18.5867H17.5867C18.139 18.5867 18.5867 18.139 18.5867 17.5867V13.9541C18.5867 13.4018 18.139 12.9541 17.5867 12.9541H13.9541ZM6.0051 17.0867V14.4541H8.63776V17.0867H6.0051ZM4.5051 13.9541C4.5051 13.4018 4.95282 12.9541 5.5051 12.9541H9.13776C9.69004 12.9541 10.1378 13.4018 10.1378 13.9541V17.5867C10.1378 18.139 9.69004 18.5867 9.13776 18.5867H5.5051C4.95282 18.5867 4.5051 18.139 4.5051 17.5867V13.9541ZM21.3418 21.5918C21.4799 21.5918 21.5918 21.4799 21.5918 21.3418V17.648C21.5918 17.2337 21.9276 16.898 22.3418 16.898C22.756 16.898 23.0918 17.2337 23.0918 17.648V21.3418C23.0918 22.3083 22.3083 23.0918 21.3418 23.0918H17.648C17.2337 23.0918 16.898 22.756 16.898 22.3418C16.898 21.9276 17.2337 21.5918 17.648 21.5918H21.3418ZM1.5 21.3418C1.5 21.4799 1.61193 21.5918 1.75 21.5918H5.44388C5.85809 21.5918 6.19388 21.9276 6.19388 22.3418C6.19388 22.756 5.85809 23.0918 5.44388 23.0918H1.75C0.783502 23.0918 0 22.3083 0 21.3418V17.648C0 17.2337 0.335787 16.898 0.75 16.898C1.16421 16.898 1.5 17.2337 1.5 17.648L1.5 21.3418ZM21.5918 1.75C21.5918 1.61193 21.4799 1.5 21.3418 1.5H17.648C17.2337 1.5 16.898 1.16421 16.898 0.75C16.898 0.335786 17.2337 0 17.648 0H21.3418C22.3083 0 23.0918 0.783502 23.0918 1.75V5.44388C23.0918 5.85809 22.756 6.19388 22.3418 6.19388C21.9276 6.19388 21.5918 5.85809 21.5918 5.44388V1.75Z" fill="white"/>
</svg>
