<svg width="22" height="24" viewBox="0 0 22 24" fill="none" xmlns="http://www.w3.org/2000/svg">
<path d="M10.8358 4.99996C11.021 4.25782 10.9053 3.38466 10.4511 2.59805C9.62268 1.16317 7.98178 0.559619 6.78605 1.24997C5.74212 1.85269 5.38263 3.54871 5.85945 4.92446" stroke="#7E839C" stroke-width="1.5"/>
<path d="M11.1642 4.99996C10.979 4.25782 11.0947 3.38466 11.5489 2.59805C12.3773 1.16317 14.0182 0.559619 15.214 1.24997C16.2579 1.85269 16.6174 3.54871 16.1406 4.92446" stroke="#7E839C" stroke-width="1.5"/>
<path d="M11 5V22.5" stroke="#7E839C" stroke-width="1.5"/>
<path d="M1.5 12H20.5" stroke="#7E839C" stroke-width="1.5"/>
<path d="M20 5H2C1.44772 5 1 5.44772 1 6V11.5C1 11.7761 1.22386 12 1.5 12C1.77614 12 2 12.2239 2 12.5V22C2 22.5523 2.44772 23 3 23H19C19.5523 23 20 22.5523 20 22V12.5C20 12.2239 20.2239 12 20.5 12C20.7761 12 21 11.7761 21 11.5V6C21 5.44772 20.5523 5 20 5Z" stroke="#7E839C" stroke-width="1.5"/>
</svg>
