<svg width="22" height="23" viewBox="0 0 22 23" fill="none" xmlns="http://www.w3.org/2000/svg">
<path fill-rule="evenodd" clip-rule="evenodd" d="M10.3745 1.58801C10.4743 1.47066 10.6555 1.47066 10.7553 1.58802L19.5668 11.9464C19.7049 12.1088 19.5895 12.3584 19.3764 12.3584H18.7474C18.057 12.3584 17.4974 12.9181 17.4974 13.6084V21.1567C17.4974 21.2948 17.3855 21.4067 17.2474 21.4067H13.6649V21.3705V16.6205C13.6649 15.5159 12.7694 14.6205 11.6649 14.6205H9.46984C8.36527 14.6205 7.46984 15.5159 7.46984 16.6205V21.3705V21.4067H3.88235C3.74428 21.4067 3.63235 21.2948 3.63235 21.1567V13.6084C3.63235 12.9181 3.07271 12.3584 2.38235 12.3584H1.75337C1.54022 12.3584 1.42484 12.1088 1.56295 11.9464L10.3745 1.58801ZM11.8978 0.616104C11.199 -0.205365 9.93072 -0.20537 9.23192 0.616103L0.420413 10.9745C-0.546338 12.111 0.261336 13.8584 1.75337 13.8584H2.13235V21.1567C2.13235 22.1232 2.91585 22.9067 3.88235 22.9067H17.2474C18.2139 22.9067 18.9974 22.1232 18.9974 21.1567V13.8584H19.3764C20.8684 13.8584 21.6761 12.111 20.7093 10.9745L11.8978 0.616104ZM8.96984 16.6205C8.96984 16.3443 9.1937 16.1205 9.46984 16.1205H11.6649C11.941 16.1205 12.1649 16.3443 12.1649 16.6205V19.8705V21.3705H10.6649H10.4698H8.96984V19.8705V16.6205Z" fill="#252424"/>
</svg>
