<svg width="24" height="24" viewBox="0 0 24 24" fill="none" xmlns="http://www.w3.org/2000/svg">
<g clip-path="url(#clip0_7_336)">
<path fill-rule="evenodd" clip-rule="evenodd" d="M0.445496 11.9817C0.445496 5.63406 5.62645 0.504196 11.9977 0.504196C18.3689 0.504196 23.55 5.63406 23.55 11.9817C23.55 18.3295 18.3689 23.4594 11.9977 23.4594C5.62645 23.4594 0.445496 18.3295 0.445496 11.9817ZM11.9977 3.07135C7.02658 3.07135 3.01265 7.06947 3.01265 11.9817C3.01265 16.8941 7.02658 20.8922 11.9977 20.8922C16.9689 20.8922 20.9828 16.8941 20.9828 11.9817C20.9828 7.06947 16.9689 3.07135 11.9977 3.07135Z" fill="#DF4826"/>
<path d="M11.9989 6.03951L13.8368 9.47475L17.6958 10.1484L14.9727 12.9452L15.5198 16.7968L11.9989 15.0901L8.4781 16.7968L9.02516 12.9452L6.30206 10.1484L10.161 9.47475L11.9989 6.03951Z" fill="#DF4826"/>
</g>
<defs>
<clipPath id="clip0_7_336">
<rect width="23.1345" height="23" fill="white" transform="translate(0.432739 0.5)"/>
</clipPath>
</defs>
</svg>
